<svg width="18" height="22" viewBox="0 0 18 22" fill="none" xmlns="http://www.w3.org/2000/svg">
<mask id="path-1-inside-1_37_1912" fill="white">
<path fill-rule="evenodd" clip-rule="evenodd" d="M12.1183 17.4451C15.5519 16.1768 18 12.8743 18 9C18 4.02944 13.9706 0 9 0C4.02944 0 0 4.02944 0 9C0 12.8743 2.44807 16.1769 5.88173 17.4451L8.13398 21.3462C8.51888 22.0128 9.48113 22.0128 9.86603 21.3462L12.1183 17.4451Z"/>
</mask>
<path fill-rule="evenodd" clip-rule="evenodd" d="M12.1183 17.4451C15.5519 16.1768 18 12.8743 18 9C18 4.02944 13.9706 0 9 0C4.02944 0 0 4.02944 0 9C0 12.8743 2.44807 16.1769 5.88173 17.4451L8.13398 21.3462C8.51888 22.0128 9.48113 22.0128 9.86603 21.3462L12.1183 17.4451Z" fill="white"/>
<path d="M12.1183 17.4451L11.7718 16.5071L11.4329 16.6323L11.2523 16.9451L12.1183 17.4451ZM5.88173 17.4451L6.74775 16.9451L6.56711 16.6323L6.22821 16.5071L5.88173 17.4451ZM8.13398 21.3462L7.26796 21.8462L8.13398 21.3462ZM9.86603 21.3462L10.7321 21.8462V21.8462L9.86603 21.3462ZM17 9C17 12.4423 14.8254 15.3792 11.7718 16.5071L12.4648 18.3832C16.2784 16.9745 19 13.3064 19 9H17ZM9 1C13.4183 1 17 4.58172 17 9H19C19 3.47715 14.5228 -1 9 -1V1ZM1 9C1 4.58172 4.58172 1 9 1V-1C3.47715 -1 -1 3.47715 -1 9H1ZM6.22821 16.5071C3.17456 15.3792 1 12.4423 1 9H-1C-1 13.3064 1.72158 16.9746 5.53524 18.3832L6.22821 16.5071ZM9.00001 20.8462L6.74775 16.9451L5.0157 17.9451L7.26796 21.8462L9.00001 20.8462ZM9.00001 20.8462L9.00001 20.8462L7.26796 21.8462C8.03776 23.1795 9.96226 23.1795 10.7321 21.8462L9.00001 20.8462ZM11.2523 16.9451L9.00001 20.8462L10.7321 21.8462L12.9843 17.9451L11.2523 16.9451Z" fill="#BABABA" mask="url(#path-1-inside-1_37_1912)"/>
</svg>
