<svg width="20" height="24" viewBox="0 0 20 24" fill="none" xmlns="http://www.w3.org/2000/svg">
<path fill-rule="evenodd" clip-rule="evenodd" d="M13.1183 18.4451C16.5519 17.1768 19 13.8743 19 10C19 5.02944 14.9706 1 10 1C5.02944 1 1 5.02944 1 10C1 13.8743 3.44807 17.1769 6.88173 18.4451L9.13398 22.3462C9.51888 23.0128 10.4811 23.0128 10.866 22.3462L13.1183 18.4451Z" fill="white"/>
<path d="M13.1183 18.4451L12.8584 17.7416L12.6043 17.8355L12.4688 18.0701L13.1183 18.4451ZM6.88173 18.4451L7.53125 18.0701L7.39577 17.8355L7.14159 17.7416L6.88173 18.4451ZM9.13398 22.3462L8.48446 22.7212L9.13398 22.3462ZM10.866 22.3462L11.5156 22.7212L10.866 22.3462ZM18.25 10C18.25 13.5503 16.0071 16.5786 12.8584 17.7416L13.3782 19.1487C17.0968 17.7751 19.75 14.1983 19.75 10H18.25ZM10 1.75C14.5563 1.75 18.25 5.44365 18.25 10H19.75C19.75 4.61522 15.3848 0.25 10 0.25V1.75ZM1.75 10C1.75 5.44365 5.44365 1.75 10 1.75V0.25C4.61522 0.25 0.25 4.61522 0.25 10H1.75ZM7.14159 17.7416C3.99294 16.5786 1.75 13.5503 1.75 10H0.25C0.25 14.1984 2.9032 17.7751 6.62186 19.1487L7.14159 17.7416ZM9.7835 21.9712L7.53125 18.0701L6.23221 18.8201L8.48446 22.7212L9.7835 21.9712ZM10.2165 21.9712C10.1203 22.1378 9.87973 22.1378 9.7835 21.9712L8.48446 22.7212C9.15804 23.8878 10.842 23.8878 11.5156 22.7212L10.2165 21.9712ZM12.4688 18.0701L10.2165 21.9712L11.5156 22.7212L13.7678 18.8201L12.4688 18.0701Z" fill="#EB5757"/>
<circle cx="10" cy="10" r="4" fill="#EB5757"/>
</svg>
